<svg xmlns="http://www.w3.org/2000/svg" width="18.94" height="24.105" viewBox="0 0 18.94 24.105"><defs><style>.a{fill:#484848;}</style></defs><g transform="translate(-3 -1)"><g transform="translate(3 1)"><path class="a" d="M21.079,25.105H3.861A.861.861,0,0,1,3,24.245V1.861A.861.861,0,0,1,3.861,1H14.192a.867.867,0,0,1,.61.251l6.887,6.887a.867.867,0,0,1,.251.61v15.5A.861.861,0,0,1,21.079,25.105ZM4.722,23.384h15.5V9.1L13.835,2.722H4.722Z" transform="translate(-3 -1)"/><path class="a" d="M16.748,9.609H9.861A.861.861,0,0,1,9,8.748V1.861a.861.861,0,1,1,1.722,0V7.887h6.026a.861.861,0,1,1,0,1.722Z" transform="translate(1.331 -1)"/></g><g transform="translate(8.165 13.054)"><path class="a" d="M9.861,16.609a.86.86,0,0,1-.61-1.469l2.834-2.834L9.252,9.47a.861.861,0,1,1,1.217-1.217L13.913,11.7a.862.862,0,0,1,0,1.217l-3.444,3.444A.858.858,0,0,1,9.861,16.609Z" transform="translate(-3.835 -8.001)"/><path class="a" d="M15.47,11.722H6.861a.861.861,0,1,1,0-1.722H15.47a.861.861,0,1,1,0,1.722Z" transform="translate(-6 -6.558)"/></g></g></svg>