<svg xmlns="http://www.w3.org/2000/svg" xmlns:xlink="http://www.w3.org/1999/xlink" width="50" height="50" viewBox="0 0 50 50"><defs><style>.a{fill:url(#a);}.b{fill:#717171;}.c{fill:#fff;}</style><linearGradient id="a" x1="0.5" y1="1" x2="0.5" gradientUnits="objectBoundingBox"><stop offset="0" stop-color="#feaa53"/><stop offset="0.612" stop-color="#ffcd49"/><stop offset="1" stop-color="#ffde44"/></linearGradient></defs><path class="a" d="M57,31A25,25,0,1,1,32,6,25,25,0,0,1,57,31Z" transform="translate(-7 -6)"/><path class="b" d="M29,46a5.859,5.859,0,0,1-4.684-2.58,1.5,1.5,0,1,1,2.368-1.84A3.081,3.081,0,0,0,29,43a3.081,3.081,0,0,0,2.316-1.42,1.5,1.5,0,1,1,2.368,1.84A5.859,5.859,0,0,1,29,46Z" transform="translate(-7 -6)"/><path class="b" d="M39.5,44a1.5,1.5,0,0,1-1.185-.58A3.081,3.081,0,0,0,36,42a3.081,3.081,0,0,0-2.316,1.42,1.5,1.5,0,0,1-2.368-1.84,5.542,5.542,0,0,1,9.368,0A1.5,1.5,0,0,1,39.5,44Z" transform="translate(-7 -6)"/><path class="c" d="M17.65,25.23a1.425,1.425,0,0,0-2.018.577A6.056,6.056,0,0,0,15,28.5,6.76,6.76,0,0,0,22,35a7.192,7.192,0,0,0,5.475-2.45.99.99,0,0,0-.263-1.476Zm19.138,5.844a.99.99,0,0,0-.263,1.476A7.19,7.19,0,0,0,42,35a6.76,6.76,0,0,0,7-6.5,6.069,6.069,0,0,0-.631-2.693,1.426,1.426,0,0,0-2.019-.577Z" transform="translate(-7 -6)"/><path class="b" d="M20.078,26.714a2.992,2.992,0,1,0,4.84,2.958Zm23.844,0-4.841,2.958a3,3,0,1,0,4.841-2.958Z" transform="translate(-7 -6)"/></svg>