<svg xmlns="http://www.w3.org/2000/svg" xmlns:xlink="http://www.w3.org/1999/xlink" width="50" height="50" viewBox="0 0 50 50"><defs><style>.a{fill:url(#a);}.b{fill:#717171;}.c{fill:url(#b);}</style><linearGradient id="a" x1="0.5" y1="1" x2="0.5" gradientUnits="objectBoundingBox"><stop offset="0" stop-color="#feaa53"/><stop offset="0.612" stop-color="#ffcd49"/><stop offset="1" stop-color="#ffde44"/></linearGradient><linearGradient id="b" y1="0.5" x2="1" y2="0.5" gradientUnits="objectBoundingBox"><stop offset="0" stop-color="#ffe79f"/><stop offset="0.258" stop-color="#ffe9a7"/><stop offset="0.66" stop-color="#ffefbd"/><stop offset="1" stop-color="#fff5d5"/></linearGradient></defs><path class="a" d="M57,31A25,25,0,1,1,32,6,25,25,0,0,1,57,31Z" transform="translate(-7 -6)"/><path class="b" d="M26,29a5,5,0,1,1-5-5A5,5,0,0,1,26,29Z" transform="translate(-7 -6)"/><path class="c" d="M21,27.5A1.5,1.5,0,1,1,19.5,26,1.5,1.5,0,0,1,21,27.5Z" transform="translate(-7 -6)"/><path class="b" d="M48,29a5,5,0,1,1-5-5A5,5,0,0,1,48,29Z" transform="translate(-7 -6)"/><path class="c" d="M43,27.5A1.5,1.5,0,1,1,41.5,26,1.5,1.5,0,0,1,43,27.5Z" transform="translate(-7 -6)"/><path class="b" d="M36.5,45h-9A1.5,1.5,0,0,1,26,43.5h0A1.5,1.5,0,0,1,27.5,42h9A1.5,1.5,0,0,1,38,43.5h0A1.5,1.5,0,0,1,36.5,45Z" transform="translate(-7 -6)"/></svg>