<svg xmlns="http://www.w3.org/2000/svg" width="24" height="24" viewBox="0 0 24 24"><defs><style>.a{fill:#484848;}</style></defs><g transform="translate(-1 -1)"><path class="a" d="M24.294,10.176H21.723a9.065,9.065,0,0,0-.558-1.348l1.818-1.818a.706.706,0,0,0,0-1l-3-3a.706.706,0,0,0-1,0L17.172,4.835a9.106,9.106,0,0,0-1.348-.558V1.706A.706.706,0,0,0,15.118,1H10.882a.706.706,0,0,0-.706.706V4.277a9.106,9.106,0,0,0-1.348.558L7.011,3.017a.706.706,0,0,0-1,0l-3,2.994a.706.706,0,0,0,0,1L4.835,8.828a9.065,9.065,0,0,0-.558,1.348H1.706A.706.706,0,0,0,1,10.882v4.235a.706.706,0,0,0,.706.706H4.277a9,9,0,0,0,.558,1.348L3.017,18.989a.706.706,0,0,0,0,1l3,3a.706.706,0,0,0,1,0l1.818-1.818a9.106,9.106,0,0,0,1.348.558v2.572a.706.706,0,0,0,.706.706h4.235a.706.706,0,0,0,.706-.706V21.723a9.106,9.106,0,0,0,1.348-.558l1.818,1.818a.706.706,0,0,0,1,0l3-2.994a.706.706,0,0,0,0-1l-1.818-1.818a9,9,0,0,0,.558-1.348h2.572A.706.706,0,0,0,25,15.118V10.882A.706.706,0,0,0,24.294,10.176Zm-.706,4.235h-2.4a.706.706,0,0,0-.683.529,7.707,7.707,0,0,1-.826,2,.706.706,0,0,0,.109.858l1.694,1.694-2,2L17.8,19.792a.706.706,0,0,0-.858-.109,7.707,7.707,0,0,1-2,.826.706.706,0,0,0-.529.683v2.4H11.588v-2.4a.706.706,0,0,0-.529-.683,7.707,7.707,0,0,1-2-.826.706.706,0,0,0-.858.109L6.511,21.486l-2-2,1.694-1.694a.706.706,0,0,0,.109-.858,7.707,7.707,0,0,1-.826-2,.706.706,0,0,0-.684-.529h-2.4V11.588h2.4a.706.706,0,0,0,.683-.529,7.722,7.722,0,0,1,.826-2A.706.706,0,0,0,6.208,8.2L4.514,6.511l2-2L8.206,6.209a.706.706,0,0,0,.858.109,7.707,7.707,0,0,1,2-.826.706.706,0,0,0,.529-.684v-2.4h2.824v2.4a.706.706,0,0,0,.529.683,7.707,7.707,0,0,1,2,.826.706.706,0,0,0,.858-.109l1.694-1.694,2,2L19.792,8.2a.706.706,0,0,0-.109.858,7.722,7.722,0,0,1,.826,2,.706.706,0,0,0,.683.529h2.4Z"/><path class="a" d="M16.128,11a5.128,5.128,0,1,0,5.128,5.128A5.128,5.128,0,0,0,16.128,11Zm0,8.79a3.663,3.663,0,1,1,3.663-3.663A3.663,3.663,0,0,1,16.128,19.79Z" transform="translate(-3.128 -3.128)"/></g></svg>